<?xml version="1.0" encoding="UTF-8" standalone="no"?>
<!-- Created with Inkscape (http://www.inkscape.org/) -->

<svg
   xmlns:dc="http://purl.org/dc/elements/1.1/"
   xmlns:cc="http://creativecommons.org/ns#"
   xmlns:rdf="http://www.w3.org/1999/02/22-rdf-syntax-ns#"
   xmlns:svg="http://www.w3.org/2000/svg"
   xmlns="http://www.w3.org/2000/svg"
   xmlns:sodipodi="http://sodipodi.sourceforge.net/DTD/sodipodi-0.dtd"
   xmlns:inkscape="http://www.inkscape.org/namespaces/inkscape"
   version="1.1"
   width="473.57141"
   height="426.4552"
   id="svg3004"
   xml:space="preserve"
   inkscape:version="0.48.2 r9819"
   sodipodi:docname="otakoppi_musta.svg"
   inkscape:export-filename="/Users/redbulli/Downloads/otakoppi_musta_pieni.png"
   inkscape:export-xdpi="63.31263"
   inkscape:export-ydpi="63.31263"><sodipodi:namedview
     pagecolor="#ffffff"
     bordercolor="#666666"
     borderopacity="1"
     objecttolerance="10"
     gridtolerance="10"
     guidetolerance="10"
     inkscape:pageopacity="0"
     inkscape:pageshadow="2"
     inkscape:window-width="640"
     inkscape:window-height="480"
     id="namedview77"
     showgrid="false"
     fit-margin-top="0"
     fit-margin-left="0"
     fit-margin-right="0"
     fit-margin-bottom="0"
     inkscape:zoom="0.22425732"
     inkscape:cx="258.32967"
     inkscape:cy="-67.998286"
     inkscape:window-x="0"
     inkscape:window-y="0"
     inkscape:window-maximized="0"
     inkscape:current-layer="svg3004" /><metadata
     id="metadata3010"><rdf:RDF><cc:Work
         rdf:about=""><dc:format>image/svg+xml</dc:format><dc:type
           rdf:resource="http://purl.org/dc/dcmitype/StillImage" /><dc:title></dc:title></cc:Work></rdf:RDF></metadata><defs
     id="defs3008"><clipPath
       id="clipPath3048"><path
         d="m 0,841.89 595.28,0 L 595.28,0 0,0 0,841.89 z"
         id="path3050"
         inkscape:connector-curvature="0" /></clipPath></defs><g
     transform="matrix(1.25,0,0,-1.25,-113.72031,1020.6347)"
     id="g3012"
     style="display:inline"><g
       transform="translate(-23.724259,436.26277)"
       id="g3044"><g
         clip-path="url(#clipPath3048)"
         id="g3046"><g
           transform="translate(415.8994,341.1748)"
           id="g3052"><path
             d="m 0,0 c -8.519,14.145 -73.133,50.115 -146.434,29.172 -94.879,-27.108 -127.159,-92.74 -126.312,-111.041 0.749,-16.117 27.677,-28.084 23.563,-0.93 -5.856,38.656 43.808,82.186 111.724,100.75 49.17,13.442 88.611,-3.543 111.451,-20.195 8.705,-6.348 9.347,-17.951 18.422,-22.213 C 4.11,-29.951 8.516,-14.145 0,0"
             id="path3054"
             style="fill:#bf1b2c;fill-opacity:1;fill-rule:evenodd;stroke:none"
             inkscape:connector-curvature="0" /></g><g
           transform="translate(415.8994,341.1748)"
           id="g3056"><path
             d="m 0,0 c -8.519,14.145 -73.133,50.115 -146.434,29.172 -94.879,-27.108 -127.159,-92.74 -126.312,-111.041 0.749,-16.117 27.677,-28.084 23.563,-0.93 -5.856,38.656 43.808,82.186 111.724,100.75 49.17,13.442 88.611,-3.543 111.451,-20.195 8.705,-6.348 9.347,-17.951 18.422,-22.213 C 4.11,-29.951 8.516,-14.145 0,0 z"
             id="path3058"
             style="fill:none;stroke:#ffffff;stroke-width:7;stroke-linecap:butt;stroke-linejoin:miter;stroke-miterlimit:4;stroke-opacity:1;stroke-dasharray:none"
             inkscape:connector-curvature="0" /></g><g
           transform="translate(459.6416,151.083)"
           id="g3060"><path
             d="m 0,0 c 0.777,16.115 -13.105,34.613 -23.368,3.152 -12.123,-37.173 -39.004,-78.937 -108.367,-91.007 -50.221,-8.739 -106.183,11.931 -127.348,30.664 -8.068,7.142 -1.679,19.972 -10.311,25.072 -11.126,6.57 -17.003,-8.748 -9.86,-23.635 7.142,-14.885 48.999,-64.228 142.242,-50.299 C -39.416,-91.469 -0.885,-18.299 0,0"
             id="path3062"
             style="fill:#bf1b2c;fill-opacity:1;fill-rule:evenodd;stroke:none"
             inkscape:connector-curvature="0" /></g><g
           transform="translate(459.6416,151.083)"
           id="g3064"><path
             d="m 0,0 c 0.777,16.115 -13.105,34.613 -23.368,3.152 -12.123,-37.173 -39.004,-78.937 -108.367,-91.007 -50.221,-8.739 -106.183,11.931 -127.348,30.664 -8.068,7.142 -1.679,19.972 -10.311,25.072 -11.126,6.57 -17.003,-8.748 -9.86,-23.635 7.142,-14.885 48.999,-64.228 142.242,-50.299 C -39.416,-91.469 -0.885,-18.299 0,0 z"
             id="path3066"
             style="fill:none;stroke:#ffffff;stroke-width:7;stroke-linecap:butt;stroke-linejoin:miter;stroke-miterlimit:4;stroke-opacity:1;stroke-dasharray:none"
             inkscape:connector-curvature="0" /></g><g
           transform="translate(483.3408,278.0244)"
           id="g3068"><path
             d="m 0,0 c 0,-17.992 -14.388,-32.577 -32.135,-32.577 -17.748,0 -32.136,14.585 -32.136,32.577 0,17.991 14.388,32.576 32.136,32.576 C -14.388,32.576 0,17.991 0,0"
             id="path3070"
             style="fill:#ffffff;fill-opacity:1;fill-rule:evenodd;stroke:none"
             inkscape:connector-curvature="0" /></g><g
           transform="translate(148.6572,171.7959)"
           id="g3072"><path
             d="M 0,0 C 0,0 -17.469,1.615 -14.521,13.016 -11.574,24.414 -5.039,36.775 0.1,31.518 5.24,26.262 0,0 0,0 M 51.355,53.805 C 35.616,44.24 40.613,0.67 27.035,-7.355 c -5.871,-4.881 -7.469,-1.409 -7.469,-1.409 0,0 13.643,71.789 -15.656,62.123 -29.299,-9.666 -40.074,-39.607 -31.372,-57.773 8.702,-18.168 27.04,-9.244 27.04,-9.244 0,0 0.323,-6.102 -1.517,-13.113 -2.276,-8.661 -6.405,-19.079 -1.235,-25.506 9.357,-11.631 22.46,-4.071 22.46,-4.071 0,0 -3.282,31.448 1.182,30.778 10.317,-0.7 21.949,-26.422 34.103,-31.868 12.154,-5.443 26.379,21.188 17.928,22.991 -4.963,-1.688 -9.11,-1.715 -9.11,-1.715 0,0 -13.223,20.144 -21.901,23.603 3.147,4.745 25.095,46.596 25.095,46.596 0,0 7.197,-0.152 6.746,8.252 -0.452,8.402 -6.233,21.082 -21.974,11.516"
             id="path3074"
             style="fill:#bf1b2c;fill-opacity:1;fill-rule:evenodd;stroke:none"
             inkscape:connector-curvature="0" /></g><g
           transform="translate(148.6572,171.7959)"
           id="g3076"><path
             d="M 0,0 C 0,0 -17.469,1.615 -14.521,13.016 -11.574,24.414 -5.039,36.775 0.1,31.518 5.24,26.262 0,0 0,0 z M 51.355,53.805 C 35.616,44.24 40.613,0.67 27.035,-7.355 c -5.871,-4.881 -7.469,-1.409 -7.469,-1.409 0,0 13.643,71.789 -15.656,62.123 -29.299,-9.666 -40.074,-39.607 -31.372,-57.773 8.702,-18.168 27.04,-9.244 27.04,-9.244 0,0 0.323,-6.102 -1.517,-13.113 -2.276,-8.661 -6.405,-19.079 -1.235,-25.506 9.357,-11.631 22.46,-4.071 22.46,-4.071 0,0 -3.282,31.448 1.182,30.778 10.317,-0.7 21.949,-26.422 34.103,-31.868 12.154,-5.443 26.379,21.188 17.928,22.991 -4.963,-1.688 -9.11,-1.715 -9.11,-1.715 0,0 -13.223,20.144 -21.901,23.603 3.147,4.745 25.095,46.596 25.095,46.596 0,0 7.197,-0.152 6.746,8.252 -0.452,8.402 -6.233,21.082 -21.974,11.516 z"
             id="path3078"
             style="fill:none;stroke:#ffffff;stroke-width:7;stroke-linecap:butt;stroke-linejoin:miter;stroke-miterlimit:4;stroke-opacity:1;stroke-dasharray:none"
             inkscape:connector-curvature="0" /></g><g
           transform="translate(253.7397,158.9209)"
           id="g3080"><path
             d="m 0,0 c -5.762,-11.434 -15.775,-1.262 -15.564,8.135 0.21,9.396 7.355,24.953 10.168,25.303 C -2.586,33.789 -5.27,15.563 0,0 m 201.25,49.391 c -2.897,7.377 -6.233,5.05 -6.233,5.05 0,0 -10.16,-24.168 -14.846,-20.334 -4.685,3.834 6.635,39.914 -0.427,42.356 -7.065,2.441 -2.235,1.844 -11.567,-0.668 -9.336,-2.51 -6.629,-13.883 -8.849,-29.133 -2.225,-15.246 -28.219,-30.279 -27.194,-22.728 1.032,7.546 27.155,40.896 4.949,44.687 -15.41,2.631 -21.474,-18.156 -25.324,-20.879 -3.213,0.537 5.903,16.94 1.936,22.887 -4.471,6.703 -18.897,13.228 -23.971,2.088 -5.07,-11.141 2.856,-40.201 2.856,-40.201 0,0 -7.926,-16.014 -12.633,-21.049 C 75.238,6.432 66.705,6.617 66.404,10.523 66.103,14.43 81.398,38.078 79.453,48.148 78.468,53.246 73.519,63.631 62.445,55.32 51.375,47.012 47.273,34.736 47.273,34.736 c 0,0 -2.829,6.143 -0.727,9.653 2.104,3.509 8.93,14.902 8.93,14.902 0,0 -2.537,10.461 -17.526,2.924 C 22.959,54.678 30.186,32.707 27.283,21.691 24.383,10.676 13.986,10.176 13.986,10.176 c 0,0 0.61,24.82 -2.32,29.359 -2.93,4.541 -13.246,2.225 -13.246,2.225 0,0 -7.746,6.084 -15.77,0.613 -8.023,-5.471 -30.242,-31.721 -11.707,-58.033 18.532,-26.311 38.379,5.527 39.536,11.406 15.937,1.492 18.912,8.746 18.912,8.746 0,0 9.963,-36.887 5.41,-40.76 -4.553,-3.873 -7.617,14.411 -15.813,12.866 -8.195,-1.547 -6.783,-8.067 -6.783,-8.067 0,0 -2.986,-10.179 7.932,-19.064 10.914,-8.885 18.321,-0.135 18.321,-0.135 0,0 15.862,13.924 14.792,25.607 -1.069,11.684 -5.284,47.102 -5.284,47.102 0,0 14.117,19.424 13.604,6.123 C 61.185,18.209 49.888,12.207 52.33,3.238 54.773,-5.73 63.042,-8.742 69.384,-7.359 c 6.34,1.382 28.237,24.107 28.237,24.107 0,0 3.906,-12.018 5.107,-21.031 1.203,-9.014 -4.568,-14.867 -1.602,-22.606 2.963,-7.74 3.803,-12.515 14.221,-10.742 10.416,1.774 2.936,37.828 2.936,37.828 l -4.584,32.336 c 0,0 16.351,31.623 16.068,7.348 -0.115,-9.986 -14.721,-9.959 -11.504,-21.049 3.215,-11.086 11.225,-9.336 16.688,-8.309 5.463,1.03 23.164,14.528 23.164,14.528 0,0 1.002,-11.444 9.359,-14.649 14.84,-5.691 36.676,31.614 33.776,38.989"
             id="path3082"
             style="fill:#bf1b2c;fill-opacity:1;fill-rule:evenodd;stroke:none"
             inkscape:connector-curvature="0" /></g><g
           transform="translate(253.7397,158.9209)"
           id="g3084"><path
             d="m 0,0 c -5.762,-11.434 -15.775,-1.262 -15.564,8.135 0.21,9.396 7.355,24.953 10.168,25.303 C -2.586,33.789 -5.27,15.563 0,0 z m 201.25,49.391 c -2.897,7.377 -6.233,5.05 -6.233,5.05 0,0 -10.16,-24.168 -14.846,-20.334 -4.685,3.834 6.635,39.914 -0.427,42.356 -7.065,2.441 -2.235,1.844 -11.567,-0.668 -9.336,-2.51 -6.629,-13.883 -8.849,-29.133 -2.225,-15.246 -28.219,-30.279 -27.194,-22.728 1.032,7.546 27.155,40.896 4.949,44.687 -15.41,2.631 -21.474,-18.156 -25.324,-20.879 -3.213,0.537 5.903,16.94 1.936,22.887 -4.471,6.703 -18.897,13.228 -23.971,2.088 -5.07,-11.141 2.856,-40.201 2.856,-40.201 0,0 -7.926,-16.014 -12.633,-21.049 C 75.238,6.432 66.705,6.617 66.404,10.523 66.103,14.43 81.398,38.078 79.453,48.148 78.468,53.246 73.519,63.631 62.445,55.32 51.375,47.012 47.273,34.736 47.273,34.736 c 0,0 -2.829,6.143 -0.727,9.653 2.104,3.509 8.93,14.902 8.93,14.902 0,0 -2.537,10.461 -17.526,2.924 C 22.959,54.678 30.186,32.707 27.283,21.691 24.383,10.676 13.986,10.176 13.986,10.176 c 0,0 0.61,24.82 -2.32,29.359 -2.93,4.541 -13.246,2.225 -13.246,2.225 0,0 -7.746,6.084 -15.77,0.613 -8.023,-5.471 -30.242,-31.721 -11.707,-58.033 18.532,-26.311 38.379,5.527 39.536,11.406 15.937,1.492 18.912,8.746 18.912,8.746 0,0 9.963,-36.887 5.41,-40.76 -4.553,-3.873 -7.617,14.411 -15.813,12.866 -8.195,-1.547 -6.783,-8.067 -6.783,-8.067 0,0 -2.986,-10.179 7.932,-19.064 10.914,-8.885 18.321,-0.135 18.321,-0.135 0,0 15.862,13.924 14.792,25.607 -1.069,11.684 -5.284,47.102 -5.284,47.102 0,0 14.117,19.424 13.604,6.123 C 61.185,18.209 49.888,12.207 52.33,3.238 54.773,-5.73 63.042,-8.742 69.384,-7.359 c 6.34,1.382 28.237,24.107 28.237,24.107 0,0 3.906,-12.018 5.107,-21.031 1.203,-9.014 -4.568,-14.867 -1.602,-22.606 2.963,-7.74 3.803,-12.515 14.221,-10.742 10.416,1.774 2.936,37.828 2.936,37.828 l -4.584,32.336 c 0,0 16.351,31.623 16.068,7.348 -0.115,-9.986 -14.721,-9.959 -11.504,-21.049 3.215,-11.086 11.225,-9.336 16.688,-8.309 5.463,1.03 23.164,14.528 23.164,14.528 0,0 1.002,-11.444 9.359,-14.649 14.84,-5.691 36.676,31.614 33.776,38.989 z"
             id="path3086"
             style="fill:none;stroke:#ffffff;stroke-width:7;stroke-linecap:butt;stroke-linejoin:miter;stroke-miterlimit:4;stroke-opacity:1;stroke-dasharray:none"
             inkscape:connector-curvature="0" /></g><g
           transform="translate(465.6514,251.3252)"
           id="g3088"><path
             d="m 0,0 c -0.178,0.371 -0.385,0.736 -0.553,1.107 -3.451,7.659 -4.769,15.401 -1.334,19.395 4.069,4.732 12.317,3.631 16.578,2.846 0.76,-0.141 1.377,-0.266 1.84,-0.352 C 16.295,12.518 9.471,4.359 0,0 m -45.703,26.01 c 6.545,-1.176 14.676,-1.565 20.539,1.838 17.461,10.136 14.348,21.621 13.018,26.031 -0.368,1.215 -1.469,2.709 -2.868,4.262 0.27,0.004 0.526,0.033 0.801,0.033 16.818,0 26.248,-11.59 29.643,-26.418 -0.549,-0.012 -1.11,-0.035 -1.698,-0.08 C 8.633,31.285 2.283,29.674 -1.303,27.848 -13.076,21.859 -15.242,7.846 -14.398,2.83 c 0.334,-1.975 1.267,-3.83 2.279,-5.371 0.154,-0.236 0.31,-0.459 0.467,-0.68 -1.524,-0.174 -3.061,-0.293 -4.618,-0.293 -18.013,0 -30.878,11.926 -29.433,29.524 m 22.848,31.125 c 4.388,-5.301 5.25,-10.299 4.074,-12.416 -5.311,-9.582 -16.961,-10.389 -25.352,-9.916 3.194,11.535 10.354,19.607 21.278,22.332 m 0.585,11.508 c -21.277,-2.67 -39.46,-26.569 -40.076,-46.274 -0.73,-23.336 22.547,-35.685 42.25,-36.486 27.381,-1.113 44.504,21.736 44.504,41.451 0,19.715 -27.121,43.764 -46.678,41.309"
             id="path3090"
             style="fill:#bf1b2c;fill-opacity:1;fill-rule:evenodd;stroke:none"
             inkscape:connector-curvature="0" /></g><g
           transform="translate(465.6514,251.3252)"
           id="g3092"><path
             d="m 0,0 c -0.178,0.371 -0.385,0.736 -0.553,1.107 -3.451,7.659 -4.769,15.401 -1.334,19.395 4.069,4.732 12.317,3.631 16.578,2.846 0.76,-0.141 1.377,-0.266 1.84,-0.352 C 16.295,12.518 9.471,4.359 0,0 z m -45.703,26.01 c 6.545,-1.176 14.676,-1.565 20.539,1.838 17.461,10.136 14.348,21.621 13.018,26.031 -0.368,1.215 -1.469,2.709 -2.868,4.262 0.27,0.004 0.526,0.033 0.801,0.033 16.818,0 26.248,-11.59 29.643,-26.418 -0.549,-0.012 -1.11,-0.035 -1.698,-0.08 C 8.633,31.285 2.283,29.674 -1.303,27.848 -13.076,21.859 -15.242,7.846 -14.398,2.83 c 0.334,-1.975 1.267,-3.83 2.279,-5.371 0.154,-0.236 0.31,-0.459 0.467,-0.68 -1.524,-0.174 -3.061,-0.293 -4.618,-0.293 -18.013,0 -30.878,11.926 -29.433,29.524 z m 22.848,31.125 c 4.388,-5.301 5.25,-10.299 4.074,-12.416 -5.311,-9.582 -16.961,-10.389 -25.352,-9.916 3.194,11.535 10.354,19.607 21.278,22.332 z m 0.585,11.508 c -21.277,-2.67 -39.46,-26.569 -40.076,-46.274 -0.73,-23.336 22.547,-35.685 42.25,-36.486 27.381,-1.113 44.504,21.736 44.504,41.451 0,19.715 -27.121,43.764 -46.678,41.309 z"
             id="path3094"
             style="fill:none;stroke:#ffffff;stroke-width:7;stroke-linecap:butt;stroke-linejoin:miter;stroke-miterlimit:4;stroke-opacity:1;stroke-dasharray:none"
             inkscape:connector-curvature="0" /></g><g
           transform="translate(359.2979,267.8877)"
           id="g3096"><path
             d="m 0,0 c 0,0 -9.041,-11.896 -9.744,2.609 -0.699,14.504 8.033,22.764 8.033,22.764 L 0,0 z m -92.355,-2.426 c -4.602,4.024 -5.879,32.166 -5.879,32.166 0,0 3.264,3.299 8.01,-5.533 4.746,-8.834 2.471,-30.656 -2.131,-26.633 m -32.52,0.836 c 2.319,31.903 13.743,37.283 13.743,37.283 0,0 -5.608,-34.759 12.943,-54.058 1.75,-10.983 -29.002,-15.129 -26.686,16.775 M 30.27,15.84 c 0,0 -12.043,-28.574 -15.495,-10.93 -3.453,17.645 4.09,23.84 -1.113,34.787 C 8.465,50.646 -3.885,39.99 -3.885,39.99 l 0.696,-3.808 c 0,0 -22.584,-7.239 -23.094,-33.965 -2.633,-9.455 -19.371,-24.303 -19.516,-14.065 -0.146,10.235 -0.351,24.647 -0.351,24.647 0,0 12.31,-0.711 14.63,4.002 0.743,1.508 0.729,6.91 -0.216,8.293 -1.94,2.834 -12.723,-0.551 -12.723,-0.551 l 3.355,20.453 c 0,0 2.342,10.779 -12.585,4.26 -14.927,-6.522 -7.939,-29.627 -7.939,-29.627 0,0 -6.422,0.447 -7.002,-6.162 -0.463,-5.287 6.276,-2.305 6.276,-2.305 0,0 -0.356,-26.529 -17.333,-23.437 1.748,5.246 17.444,48.593 -6.285,60.127 -5.084,3.884 -13.24,0.179 -18.322,-1.723 -13.34,23.738 -75.931,-59.889 -21.268,-91.805 20.318,-7.383 40.455,20.363 40.455,20.363 0,0 14.061,-2.726 21.247,5.79 14.989,-33.311 39.094,6.269 39.094,6.269 0,0 16.09,-25.943 24.543,4.488 C 12.146,-45.092 35.93,4.631 35.973,10.973 36.02,17.314 30.27,15.84 30.27,15.84"
             id="path3098"
             style="fill:#bf1b2c;fill-opacity:1;fill-rule:evenodd;stroke:none"
             inkscape:connector-curvature="0" /></g><g
           transform="translate(359.2979,267.8877)"
           id="g3100"><path
             d="m 0,0 c 0,0 -9.041,-11.896 -9.744,2.609 -0.699,14.504 8.033,22.764 8.033,22.764 L 0,0 z m -92.355,-2.426 c -4.602,4.024 -5.879,32.166 -5.879,32.166 0,0 3.264,3.299 8.01,-5.533 4.746,-8.834 2.471,-30.656 -2.131,-26.633 z m -32.52,0.836 c 2.319,31.903 13.743,37.283 13.743,37.283 0,0 -5.608,-34.759 12.943,-54.058 1.75,-10.983 -29.002,-15.129 -26.686,16.775 z M 30.27,15.84 c 0,0 -12.043,-28.574 -15.495,-10.93 -3.453,17.645 4.09,23.84 -1.113,34.787 C 8.465,50.646 -3.885,39.99 -3.885,39.99 l 0.696,-3.808 c 0,0 -22.584,-7.239 -23.094,-33.965 -2.633,-9.455 -19.371,-24.303 -19.516,-14.065 -0.146,10.235 -0.351,24.647 -0.351,24.647 0,0 12.31,-0.711 14.63,4.002 0.743,1.508 0.729,6.91 -0.216,8.293 -1.94,2.834 -12.723,-0.551 -12.723,-0.551 l 3.355,20.453 c 0,0 2.342,10.779 -12.585,4.26 -14.927,-6.522 -7.939,-29.627 -7.939,-29.627 0,0 -6.422,0.447 -7.002,-6.162 -0.463,-5.287 6.276,-2.305 6.276,-2.305 0,0 -0.356,-26.529 -17.333,-23.437 1.748,5.246 17.444,48.593 -6.285,60.127 -5.084,3.884 -13.24,0.179 -18.322,-1.723 -13.34,23.738 -75.931,-59.889 -21.268,-91.805 20.318,-7.383 40.455,20.363 40.455,20.363 0,0 14.061,-2.726 21.247,5.79 14.989,-33.311 39.094,6.269 39.094,6.269 0,0 16.09,-25.943 24.543,4.488 C 12.146,-45.092 35.93,4.631 35.973,10.973 36.02,17.314 30.27,15.84 30.27,15.84 z"
             id="path3102"
             style="fill:none;stroke:#ffffff;stroke-width:7;stroke-linecap:butt;stroke-linejoin:miter;stroke-miterlimit:4;stroke-opacity:1;stroke-dasharray:none"
             inkscape:connector-curvature="0" /></g><g
           transform="translate(377.7549,290.7861)"
           id="g3104"><path
             d="m 0,0 c -1.514,6.055 2.119,5.838 7.869,6.098 5.75,0.259 13.822,10.359 16.404,9.644 2.586,-0.715 3.27,0.906 5.086,-4.846 C 31.176,5.146 20.281,0 20.281,0 20.281,0 1.512,-6.053 0,0"
             id="path3106"
             style="fill:#bf1b2c;fill-opacity:1;fill-rule:nonzero;stroke:none"
             inkscape:connector-curvature="0" /></g><g
           transform="translate(377.7549,290.7861)"
           id="g3108"><path
             d="m 0,0 c -1.514,6.055 2.119,5.838 7.869,6.098 5.75,0.259 13.822,10.359 16.404,9.644 2.586,-0.715 3.27,0.906 5.086,-4.846 C 31.176,5.146 20.281,0 20.281,0 20.281,0 1.512,-6.053 0,0 z"
             id="path3110"
             style="fill:none;stroke:#ffffff;stroke-width:7;stroke-linecap:butt;stroke-linejoin:miter;stroke-miterlimit:4;stroke-opacity:1;stroke-dasharray:none"
             inkscape:connector-curvature="0" /></g><g
           transform="translate(148.6572,171.7959)"
           id="g3112"><path
             d="M 0,0 C 0,0 -17.469,1.615 -14.521,13.016 -11.574,24.413 -5.039,36.775 0.1,31.518 5.24,26.261 0,0 0,0 M 51.355,53.805 C 35.616,44.24 40.613,0.669 27.035,-7.356 c -5.871,-4.88 -7.469,-1.409 -7.469,-1.409 0,0 13.643,71.79 -15.656,62.124 -29.299,-9.666 -40.074,-39.608 -31.372,-57.774 8.702,-18.166 27.04,-9.244 27.04,-9.244 0,0 0.323,-6.102 -1.517,-13.112 -2.276,-8.66 -6.405,-19.079 -1.235,-25.504 9.357,-11.631 22.46,-4.071 22.46,-4.071 0,0 -3.282,31.446 1.182,30.777 10.317,-0.7 21.949,-26.421 34.103,-31.867 12.154,-5.443 26.379,21.186 17.928,22.99 -4.963,-1.688 -9.11,-1.715 -9.11,-1.715 0,0 -13.223,20.143 -21.901,23.601 3.147,4.745 25.095,46.597 25.095,46.597 0,0 7.197,-0.152 6.746,8.252 -0.452,8.402 -6.233,21.082 -21.974,11.516"
             id="path3114"
             style="fill:#000000;fill-opacity:1;fill-rule:evenodd;stroke:none"
             inkscape:connector-curvature="0" /></g><g
           transform="translate(253.7397,158.9199)"
           id="g3116"><path
             d="m 0,0 c -5.762,-11.432 -15.775,-1.262 -15.564,8.135 0.21,9.396 7.355,24.953 10.168,25.303 C -2.586,33.789 -5.27,15.563 0,0 m 201.25,49.392 c -2.897,7.377 -6.233,5.05 -6.233,5.05 0,0 -10.16,-24.169 -14.846,-20.335 -4.685,3.834 6.635,39.915 -0.427,42.357 -7.065,2.441 -2.235,1.844 -11.567,-0.668 -9.336,-2.51 -6.629,-13.883 -8.849,-29.133 -2.225,-15.247 -28.219,-30.279 -27.194,-22.728 1.032,7.546 27.155,40.896 4.949,44.687 -15.41,2.631 -21.474,-18.156 -25.324,-20.879 -3.213,0.537 5.903,16.94 1.936,22.887 -4.471,6.703 -18.897,13.228 -23.971,2.088 -5.07,-11.141 2.856,-40.202 2.856,-40.202 0,0 -7.926,-16.014 -12.633,-21.049 C 75.238,6.432 66.705,6.617 66.404,10.523 66.103,14.43 81.398,38.079 79.453,48.149 78.468,53.247 73.519,63.632 62.445,55.321 51.375,47.013 47.273,34.737 47.273,34.737 c 0,0 -2.829,6.142 -0.727,9.652 2.104,3.51 8.93,14.903 8.93,14.903 0,0 -2.537,10.461 -17.526,2.924 C 22.959,54.679 30.186,32.707 27.283,21.692 24.383,10.677 13.986,10.176 13.986,10.176 c 0,0 0.61,24.82 -2.32,29.359 -2.93,4.541 -13.246,2.225 -13.246,2.225 0,0 -7.746,6.085 -15.77,0.613 -8.023,-5.471 -30.242,-31.721 -11.707,-58.031 18.532,-26.31 38.379,5.527 39.536,11.404 15.937,1.493 18.912,8.746 18.912,8.746 0,0 9.963,-36.884 5.41,-40.757 -4.553,-3.875 -7.617,14.41 -15.813,12.865 -8.195,-1.547 -6.783,-8.066 -6.783,-8.066 0,0 -2.986,-10.18 7.932,-19.064 10.914,-8.887 18.321,-0.137 18.321,-0.137 0,0 15.862,13.926 14.792,25.607 -1.069,11.685 -5.284,47.102 -5.284,47.102 0,0 14.117,19.423 13.604,6.122 C 61.185,18.209 49.888,12.207 52.33,3.238 54.773,-5.729 63.042,-8.74 69.384,-7.358 c 6.34,1.382 28.237,24.106 28.237,24.106 0,0 3.906,-12.018 5.107,-21.03 1.203,-9.013 -4.568,-14.866 -1.602,-22.604 2.963,-7.74 3.803,-12.517 14.221,-10.744 10.416,1.774 2.936,37.828 2.936,37.828 l -4.584,32.335 c 0,0 16.351,31.624 16.068,7.348 -0.115,-9.986 -14.721,-9.959 -11.504,-21.049 3.215,-11.086 11.225,-9.335 16.688,-8.309 5.463,1.031 23.164,14.529 23.164,14.529 0,0 1.002,-11.445 9.359,-14.65 14.84,-5.691 36.676,31.614 33.776,38.99"
             id="path3118"
             style="fill:#000000;fill-opacity:1;fill-rule:evenodd;stroke:none"
             inkscape:connector-curvature="0" /></g><g
           transform="translate(465.6514,251.3252)"
           id="g3120"><path
             d="m 0,0 c -0.178,0.371 -0.385,0.736 -0.553,1.107 -3.451,7.659 -4.769,15.401 -1.334,19.395 4.069,4.732 12.317,3.631 16.578,2.846 0.76,-0.141 1.377,-0.266 1.84,-0.352 C 16.295,12.518 9.471,4.359 0,0 m -45.703,26.01 c 6.545,-1.176 14.676,-1.565 20.539,1.838 17.461,10.136 14.348,21.621 13.018,26.031 -0.368,1.215 -1.469,2.709 -2.868,4.262 0.27,0.004 0.526,0.033 0.801,0.033 16.818,0 26.248,-11.59 29.643,-26.418 -0.549,-0.012 -1.11,-0.035 -1.698,-0.08 C 8.633,31.285 2.283,29.674 -1.303,27.848 -13.076,21.859 -15.242,7.846 -14.398,2.83 c 0.334,-1.975 1.267,-3.83 2.279,-5.371 0.154,-0.236 0.31,-0.459 0.467,-0.68 -1.524,-0.174 -3.061,-0.293 -4.618,-0.293 -18.013,0 -30.878,11.926 -29.433,29.524 m 22.848,31.125 c 4.388,-5.301 5.25,-10.299 4.074,-12.416 -5.311,-9.582 -16.961,-10.389 -25.352,-9.916 3.194,11.535 10.354,19.607 21.278,22.332 m 0.585,11.508 c -21.277,-2.67 -39.46,-26.569 -40.076,-46.274 -0.73,-23.336 22.547,-35.685 42.25,-36.486 27.381,-1.113 44.504,21.736 44.504,41.451 0,19.715 -27.121,43.764 -46.678,41.309"
             id="path3122"
             style="fill:#000000;fill-opacity:1;fill-rule:evenodd;stroke:none"
             inkscape:connector-curvature="0" /></g><g
           transform="translate(359.2979,267.8877)"
           id="g3124"><path
             d="m 0,0 c 0,0 -9.041,-11.896 -9.744,2.609 -0.699,14.504 8.033,22.764 8.033,22.764 L 0,0 z m -92.355,-2.426 c -4.602,4.024 -5.879,32.166 -5.879,32.166 0,0 3.264,3.299 8.01,-5.533 4.746,-8.834 2.471,-30.656 -2.131,-26.633 m -32.52,0.836 c 2.319,31.903 13.743,37.283 13.743,37.283 0,0 -5.608,-34.759 12.943,-54.058 1.75,-10.983 -29.002,-15.129 -26.686,16.775 M 30.27,15.84 c 0,0 -12.043,-28.574 -15.495,-10.93 -3.453,17.645 4.09,23.84 -1.113,34.787 C 8.465,50.646 -3.885,39.99 -3.885,39.99 l 0.696,-3.808 c 0,0 -22.584,-7.239 -23.094,-33.965 -2.633,-9.455 -19.371,-24.303 -19.516,-14.065 -0.146,10.235 -0.351,24.647 -0.351,24.647 0,0 12.31,-0.711 14.63,4.002 0.743,1.508 0.729,6.91 -0.216,8.293 -1.94,2.834 -12.723,-0.551 -12.723,-0.551 l 3.355,20.453 c 0,0 2.342,10.779 -12.585,4.26 -14.927,-6.522 -7.939,-29.627 -7.939,-29.627 0,0 -6.422,0.447 -7.002,-6.162 -0.463,-5.287 6.276,-2.305 6.276,-2.305 0,0 -0.356,-26.529 -17.333,-23.437 1.748,5.246 17.444,48.593 -6.285,60.127 -5.084,3.884 -13.24,0.179 -18.322,-1.723 -13.34,23.738 -75.931,-59.889 -21.268,-91.805 20.318,-7.383 40.455,20.363 40.455,20.363 0,0 14.061,-2.726 21.247,5.79 14.989,-33.311 39.094,6.269 39.094,6.269 0,0 16.09,-25.943 24.543,4.488 C 12.146,-45.092 35.93,4.631 35.973,10.973 36.02,17.314 30.27,15.84 30.27,15.84"
             id="path3126"
             style="fill:#000000;fill-opacity:1;fill-rule:evenodd;stroke:none"
             inkscape:connector-curvature="0" /></g><g
           transform="translate(377.7549,290.7861)"
           id="g3128"><path
             d="m 0,0 c -1.514,6.055 2.119,5.838 7.869,6.098 5.75,0.259 13.822,10.359 16.404,9.644 2.586,-0.715 3.27,0.906 5.086,-4.846 C 31.176,5.146 20.281,0 20.281,0 20.281,0 1.512,-6.053 0,0"
             id="path3130"
             style="fill:#000000;fill-opacity:1;fill-rule:nonzero;stroke:none"
             inkscape:connector-curvature="0" /></g><g
           transform="translate(415.8994,341.1748)"
           id="g3132"><path
             d="m 0,0 c -8.519,14.145 -73.133,50.115 -146.434,29.172 -94.879,-27.108 -127.159,-92.74 -126.312,-111.041 0.749,-16.117 27.677,-28.084 23.563,-0.93 -5.856,38.656 43.808,82.186 111.724,100.75 49.17,13.442 88.611,-3.543 111.451,-20.195 8.705,-6.348 9.347,-17.951 18.422,-22.213 C 4.11,-29.951 8.516,-14.145 0,0"
             id="path3134"
             style="fill:#000000;fill-opacity:1;fill-rule:evenodd;stroke:none"
             inkscape:connector-curvature="0" /></g><g
           transform="translate(459.6416,151.083)"
           id="g3136"><path
             d="m 0,0 c 0.777,16.115 -13.105,34.613 -23.368,3.152 -12.123,-37.173 -39.004,-78.937 -108.367,-91.007 -50.221,-8.739 -106.183,11.931 -127.348,30.664 -8.068,7.142 -1.679,19.972 -10.311,25.072 -11.126,6.57 -17.003,-8.748 -9.86,-23.635 7.142,-14.885 48.999,-64.228 142.242,-50.299 C -39.416,-91.469 -0.885,-18.299 0,0"
             id="path3138"
             style="fill:#000000;fill-opacity:1;fill-rule:evenodd;stroke:none"
             inkscape:connector-curvature="0" /></g><g
           transform="translate(152.6133,575.231)"
           id="g3140" /><g
           transform="translate(257.6963,562.355)"
           id="g3144" /><g
           transform="translate(469.6064,654.7593)"
           id="g3148" /><g
           transform="translate(363.2529,671.3218)"
           id="g3152" /><g
           transform="translate(384.6328,697.2778)"
           id="g3156" /><g
           transform="translate(411.9434,750.3569)"
           id="g3160" /><g
           transform="translate(455.6855,560.2651)"
           id="g3164" /><g
           transform="translate(144.7017,580.978)"
           id="g3168" /><g
           transform="translate(144.7017,580.978)"
           id="g3172" /><g
           transform="translate(249.7847,568.1021)"
           id="g3176" /><g
           transform="translate(249.7847,568.1021)"
           id="g3180" /><g
           transform="translate(461.6953,660.5063)"
           id="g3184" /><g
           transform="translate(461.6953,660.5063)"
           id="g3188" /><g
           transform="translate(355.3418,677.0688)"
           id="g3192" /><g
           transform="translate(355.3418,677.0688)"
           id="g3196" /><g
           transform="translate(373.7988,699.9683)"
           id="g3200" /><g
           transform="translate(373.7988,699.9683)"
           id="g3204" /><g
           transform="translate(479.8438,685.0684)"
           id="g3208" /><g
           transform="translate(144.7017,580.9775)"
           id="g3212" /><g
           transform="translate(249.7847,568.1016)"
           id="g3216" /><g
           transform="translate(461.6953,660.5063)"
           id="g3220" /><g
           transform="translate(355.3418,677.0688)"
           id="g3224" /><g
           transform="translate(373.7988,699.9683)"
           id="g3228" /></g></g></g></svg>