<?xml version="1.0" encoding="UTF-8" standalone="no"?>
<!-- Created with Inkscape (http://www.inkscape.org/) -->

<svg
   xmlns:dc="http://purl.org/dc/elements/1.1/"
   xmlns:cc="http://creativecommons.org/ns#"
   xmlns:rdf="http://www.w3.org/1999/02/22-rdf-syntax-ns#"
   xmlns:svg="http://www.w3.org/2000/svg"
   xmlns="http://www.w3.org/2000/svg"
   version="1.1"
   id="svg2"
   xml:space="preserve"><metadata
     id="metadata8"><rdf:RDF><cc:Work
         rdf:about=""><dc:format>image/svg+xml</dc:format><dc:type
           rdf:resource="http://purl.org/dc/dcmitype/StillImage" /><dc:title></dc:title></cc:Work></rdf:RDF></metadata><defs
     id="defs6"><clipPath
       id="clipPath46"><path
         d="m 0,841.89 595.28,0 L 595.28,0 0,0 0,841.89 z"
         id="path48" /></clipPath></defs><g
     transform="matrix(1.25,0,0,-1.25,-138.43124,982.40875)"
     id="g10"><g
       id="g42"><g
         clip-path="url(#clipPath46)"
         id="g44"><g
           transform="translate(415.8994,341.1748)"
           id="g50" /><g
           transform="translate(415.8994,341.1748)"
           id="g54" /><g
           transform="translate(459.6416,151.083)"
           id="g58" /><g
           transform="translate(459.6416,151.083)"
           id="g62" /><g
           transform="translate(483.3408,278.0244)"
           id="g66" /><g
           transform="translate(148.6572,171.7959)"
           id="g70" /><g
           transform="translate(148.6572,171.7959)"
           id="g74" /><g
           transform="translate(253.7397,158.9209)"
           id="g78" /><g
           transform="translate(253.7397,158.9209)"
           id="g82" /><g
           transform="translate(465.6514,251.3252)"
           id="g86" /><g
           transform="translate(465.6514,251.3252)"
           id="g90" /><g
           transform="translate(359.2979,267.8877)"
           id="g94" /><g
           transform="translate(359.2979,267.8877)"
           id="g98" /><g
           transform="translate(377.7549,290.7861)"
           id="g102" /><g
           transform="translate(377.7549,290.7861)"
           id="g106" /><g
           transform="translate(148.6572,171.7959)"
           id="g110" /><g
           transform="translate(253.7397,158.9199)"
           id="g114" /><g
           transform="translate(465.6514,251.3252)"
           id="g118" /><g
           transform="translate(359.2979,267.8877)"
           id="g122" /><g
           transform="translate(377.7549,290.7861)"
           id="g126" /><g
           transform="translate(415.8994,341.1748)"
           id="g130" /><g
           transform="translate(459.6416,151.083)"
           id="g134" /><g
           transform="translate(152.6133,575.231)"
           id="g138"><path
             d="M 0,0 C 0,0 -17.469,1.615 -14.521,13.016 -11.574,24.413 -5.039,36.774 0.1,31.518 5.24,26.261 0,0 0,0 M 51.355,53.805 C 35.616,44.239 40.613,0.669 27.035,-7.356 c -5.871,-4.88 -7.469,-1.409 -7.469,-1.409 0,0 13.643,71.79 -15.656,62.124 -29.299,-9.666 -40.074,-39.608 -31.372,-57.774 8.702,-18.166 27.04,-9.244 27.04,-9.244 0,0 0.323,-6.102 -1.517,-13.112 -2.276,-8.66 -6.405,-19.079 -1.235,-25.505 9.357,-11.631 22.46,-4.071 22.46,-4.071 0,0 -3.282,31.447 1.182,30.778 10.317,-0.7 21.949,-26.422 34.103,-31.868 12.154,-5.443 26.378,21.187 17.927,22.991 -4.963,-1.688 -9.108,-1.715 -9.108,-1.715 0,0 -13.224,20.143 -21.902,23.601 3.147,4.745 25.094,46.597 25.094,46.597 0,0 7.197,-0.153 6.746,8.251 -0.451,8.402 -6.232,21.082 -21.973,11.517"
             id="path140"
             style="fill:#231f20;fill-opacity:1;fill-rule:evenodd;stroke:none" /></g><g
           transform="translate(257.6963,562.355)"
           id="g142"><path
             d="m 0,0 c -5.763,-11.432 -15.776,-1.262 -15.564,8.135 0.21,9.396 7.354,24.953 10.167,25.303 C -2.586,33.789 -5.271,15.563 0,0 m 201.249,49.392 c -2.896,7.376 -6.232,5.05 -6.232,5.05 0,0 -10.161,-24.169 -14.846,-20.335 -4.686,3.834 6.634,39.914 -0.428,42.356 -7.064,2.442 -2.235,1.844 -11.567,-0.668 -9.335,-2.51 -6.629,-13.883 -8.85,-29.133 -2.223,-15.246 -28.219,-30.278 -27.192,-22.727 1.03,7.546 27.154,40.895 4.948,44.686 -15.41,2.631 -21.475,-18.155 -25.324,-20.878 -3.213,0.537 -1.124,16.408 -5.09,22.356 -4.472,6.703 -11.87,13.758 -16.944,2.618 -5.071,-11.14 2.854,-40.201 2.854,-40.201 0,0 -7.925,-16.014 -12.633,-21.049 C 75.236,6.432 66.703,6.617 66.402,10.523 66.102,14.43 81.396,38.079 79.451,48.149 78.467,53.247 73.518,63.631 62.444,55.321 51.373,47.012 47.272,34.737 47.272,34.737 c 0,0 -2.83,6.142 -0.726,9.652 2.103,3.509 8.929,14.902 8.929,14.902 0,0 -11.547,3.34 -26.536,-4.197 -14.99,-7.537 1.246,-22.387 -1.656,-33.402 -2.9,-11.015 -13.298,-11.516 -13.298,-11.516 0,0 0.61,24.82 -2.32,29.359 -2.93,4.541 -13.246,2.225 -13.246,2.225 0,0 -7.745,6.084 -15.77,0.613 -8.023,-5.471 -30.241,-31.721 -11.706,-58.031 18.532,-26.311 38.378,5.527 39.536,11.404 15.937,1.493 18.912,8.746 18.912,8.746 0,0 9.962,-36.885 5.409,-40.758 -4.552,-3.874 -7.617,14.411 -15.813,12.866 -8.195,-1.547 -6.782,-8.067 -6.782,-8.067 0,0 -2.986,-10.179 7.932,-19.064 10.914,-8.885 18.319,-0.136 18.319,-0.136 0,0 15.862,13.925 14.793,25.607 -1.069,11.685 -5.284,47.102 -5.284,47.102 0,0 14.117,19.423 13.603,6.122 C 61.184,18.209 49.887,12.207 52.329,3.238 54.772,-5.729 63.041,-8.74 69.383,-7.358 c 6.341,1.382 28.237,24.106 28.237,24.106 0,0 3.905,-12.018 5.108,-21.03 1.202,-9.013 -4.57,-14.866 -1.603,-22.605 2.963,-7.74 3.804,-12.516 14.221,-10.743 10.416,1.774 2.936,37.828 2.936,37.828 l -4.584,32.335 c 0,0 16.351,31.624 16.069,7.348 -0.117,-9.986 -14.721,-9.959 -11.505,-21.049 3.216,-11.086 11.224,-9.335 16.687,-8.309 5.463,1.031 23.164,14.529 23.164,14.529 0,0 1.003,-11.445 9.36,-14.65 14.84,-5.691 36.676,31.614 33.776,38.99"
             id="path144"
             style="fill:#231f20;fill-opacity:1;fill-rule:evenodd;stroke:none" /></g><g
           transform="translate(469.6064,654.7593)"
           id="g146"><path
             d="m 0,0 c -0.177,0.371 -0.385,0.737 -0.552,1.108 -3.451,7.659 -4.77,15.401 -1.334,19.395 4.068,4.731 12.317,3.631 16.577,2.846 0.761,-0.141 1.377,-0.267 1.84,-0.352 C 16.296,12.519 9.472,4.36 0,0 m -45.703,26.011 c 6.545,-1.177 14.676,-1.566 20.539,1.838 17.462,10.136 14.348,21.621 13.018,26.03 -0.368,1.215 -1.468,2.71 -2.868,4.262 0.27,0.004 0.527,0.033 0.801,0.033 16.818,0 26.249,-11.59 29.644,-26.417 C 14.882,31.745 14.32,31.722 13.733,31.677 8.634,31.286 2.284,29.675 -1.303,27.849 -13.076,21.859 -15.241,7.847 -14.397,2.831 c 0.334,-1.976 1.267,-3.83 2.278,-5.372 0.155,-0.235 0.31,-0.458 0.467,-0.679 -1.523,-0.175 -3.061,-0.293 -4.618,-0.293 -18.012,0 -30.878,11.925 -29.433,29.524 m 22.849,31.124 c 4.387,-5.301 5.249,-10.299 4.074,-12.416 -5.311,-9.581 -16.962,-10.388 -25.353,-9.915 3.195,11.534 10.355,19.606 21.279,22.331 m 0.584,11.508 c -21.276,-2.67 -39.46,-26.569 -40.075,-46.273 -0.731,-23.336 22.547,-35.685 42.249,-36.486 27.381,-1.113 44.504,21.735 44.504,41.45 0,19.715 -27.12,43.764 -46.678,41.309"
             id="path148"
             style="fill:#231f20;fill-opacity:1;fill-rule:evenodd;stroke:none" /></g><g
           transform="translate(363.2529,671.3218)"
           id="g150"><path
             d="m 0,0 c 0,0 -9.04,-11.896 -9.744,2.609 -0.699,14.505 8.033,22.765 8.033,22.765 L 0,0 z m -92.354,-2.426 c -4.602,4.025 -5.879,32.167 -5.879,32.167 0,0 3.263,3.299 8.009,-5.533 4.746,-8.834 2.471,-30.657 -2.13,-26.634 m -32.52,0.836 c 2.318,31.903 13.742,37.283 13.742,37.283 0,0 -5.607,-34.759 12.944,-54.057 1.75,-10.984 -29.002,-15.129 -26.686,16.774 M 30.27,15.841 c 0,0 -12.042,-28.575 -15.495,-10.93 -3.453,17.645 4.09,23.84 -1.112,34.787 C 8.465,50.647 -3.885,39.99 -3.885,39.99 l 0.697,-3.808 c 0,0 -22.585,-7.239 -23.094,-33.965 -2.633,-9.455 -19.371,-24.302 -19.517,-14.065 -0.146,10.235 -0.35,24.648 -0.35,24.648 0,0 12.31,-0.711 14.629,4.001 0.743,1.509 0.729,6.911 -0.215,8.294 -1.941,2.834 -12.723,-0.551 -12.723,-0.551 l 3.355,20.452 c 0,0 2.341,10.78 -12.585,4.26 -14.927,-6.521 -7.94,-29.626 -7.94,-29.626 0,0 -6.422,0.447 -7.002,-6.163 -0.463,-5.286 6.276,-2.304 6.276,-2.304 0,0 -0.355,-26.529 -17.333,-23.438 1.749,5.246 17.445,48.594 -6.285,60.128 -5.084,3.883 -13.24,0.178 -18.321,-1.723 -13.341,23.737 -75.931,-59.89 -21.269,-91.805 20.319,-7.384 40.456,20.362 40.456,20.362 0,0 14.06,-2.725 21.246,5.79 14.989,-33.31 39.094,6.27 39.094,6.27 0,0 16.091,-25.944 24.544,4.487 12.368,-36.326 36.153,13.397 36.196,19.739 0.047,6.341 -5.704,4.868 -5.704,4.868"
             id="path152"
             style="fill:#231f20;fill-opacity:1;fill-rule:evenodd;stroke:none" /></g><g
           transform="translate(384.6328,697.2778)"
           id="g154"><path
             d="M 0,0 C -1.513,6.054 -0.804,2.781 4.947,3.04 10.697,3.301 18.77,13.4 21.352,12.685 23.937,11.97 24.621,13.591 26.438,7.84 28.253,2.09 17.358,-3.057 17.358,-3.057 17.358,-3.057 1.513,-6.054 0,0"
             id="path156"
             style="fill:#231f20;fill-opacity:1;fill-rule:nonzero;stroke:none" /></g><g
           transform="translate(411.9434,750.3569)"
           id="g158"><path
             d="M 0,0 C -8.519,14.145 -73.133,50.115 -146.434,29.171 -241.313,2.064 -273.593,-63.568 -272.745,-81.87 c 0.749,-16.116 27.677,-28.084 23.562,-0.93 -5.855,38.657 43.808,82.186 111.724,100.751 49.17,13.442 88.611,-3.543 111.451,-20.195 8.705,-6.349 9.347,-17.951 18.422,-22.213 C 4.11,-29.951 8.516,-14.146 0,0"
             id="path160"
             style="fill:#bf1b2c;fill-opacity:1;fill-rule:evenodd;stroke:none" /></g><g
           transform="translate(455.6855,560.2651)"
           id="g162"><path
             d="m 0,0 c 0.777,16.114 -13.105,34.612 -23.368,3.151 -12.123,-37.173 -39.004,-78.936 -108.367,-91.007 -50.22,-8.739 -106.183,11.931 -127.347,30.665 -8.068,7.142 -1.68,19.971 -10.312,25.071 -11.126,6.57 -17.002,-8.747 -9.86,-23.635 7.143,-14.884 48.999,-64.228 142.242,-50.298 C -39.416,-91.47 -0.885,-18.3 0,0"
             id="path164"
             style="fill:#bf1b2c;fill-opacity:1;fill-rule:evenodd;stroke:none" /></g><g
           transform="translate(144.7017,580.978)"
           id="g166"><path
             d="M 0,0 C 0,0 -17.469,1.615 -14.521,13.016 -11.574,24.413 -5.039,36.774 0.1,31.518 5.24,26.261 0,0 0,0 M 51.355,53.805 C 35.616,44.239 40.613,0.669 27.035,-7.356 c -5.871,-4.88 -7.469,-1.409 -7.469,-1.409 0,0 13.643,71.79 -15.656,62.124 -29.299,-9.666 -40.074,-39.608 -31.372,-57.774 8.702,-18.167 27.04,-9.244 27.04,-9.244 0,0 0.323,-6.102 -1.517,-13.112 -2.276,-8.661 -6.405,-19.079 -1.235,-25.506 9.357,-11.631 22.46,-4.071 22.46,-4.071 0,0 -3.282,31.448 1.182,30.778 10.317,-0.7 21.949,-26.422 34.103,-31.868 12.154,-5.443 26.378,21.188 17.927,22.991 -4.963,-1.688 -9.108,-1.715 -9.108,-1.715 0,0 -13.224,20.144 -21.902,23.602 3.147,4.745 25.094,46.597 25.094,46.597 0,0 7.197,-0.153 6.746,8.251 -0.451,8.402 -6.232,21.082 -21.973,11.517"
             id="path168"
             style="fill:#bf1b2c;fill-opacity:1;fill-rule:evenodd;stroke:none" /></g><g
           transform="translate(144.7017,580.978)"
           id="g170"><path
             d="M 0,0 C 0,0 -17.469,1.615 -14.521,13.016 -11.574,24.413 -5.039,36.774 0.1,31.518 5.24,26.261 0,0 0,0 z M 51.355,53.805 C 35.616,44.239 40.613,0.669 27.035,-7.356 c -5.871,-4.88 -7.469,-1.409 -7.469,-1.409 0,0 13.643,71.79 -15.656,62.124 -29.299,-9.666 -40.074,-39.608 -31.372,-57.774 8.702,-18.167 27.04,-9.244 27.04,-9.244 0,0 0.323,-6.102 -1.517,-13.112 -2.276,-8.661 -6.405,-19.079 -1.235,-25.506 9.357,-11.631 22.46,-4.071 22.46,-4.071 0,0 -3.282,31.448 1.182,30.778 10.317,-0.7 21.949,-26.422 34.103,-31.868 12.154,-5.443 26.378,21.188 17.927,22.991 -4.963,-1.688 -9.108,-1.715 -9.108,-1.715 0,0 -13.224,20.144 -21.902,23.602 3.147,4.745 25.094,46.597 25.094,46.597 0,0 7.197,-0.153 6.746,8.251 -0.451,8.402 -6.232,21.082 -21.973,11.517 z"
             id="path172"
             style="fill:none;stroke:#ffffff;stroke-width:7;stroke-linecap:butt;stroke-linejoin:miter;stroke-miterlimit:4;stroke-opacity:1;stroke-dasharray:none" /></g><g
           transform="translate(249.7847,568.1021)"
           id="g174"><path
             d="m 0,0 c -5.763,-11.433 -15.776,-1.262 -15.564,8.135 0.21,9.396 7.354,24.953 10.167,25.303 C -2.586,33.789 -5.271,15.563 0,0 m 201.249,49.392 c -2.897,7.376 -6.233,5.05 -6.233,5.05 0,0 -10.16,-24.169 -14.846,-20.335 -4.685,3.834 6.635,39.914 -0.427,42.356 -7.065,2.442 -2.235,1.844 -11.567,-0.668 -9.336,-2.51 -6.629,-13.883 -8.849,-29.133 -2.225,-15.246 -28.219,-30.278 -27.194,-22.727 1.032,7.546 27.155,40.895 4.95,44.686 -15.411,2.631 -21.475,-18.155 -25.325,-20.878 -3.213,0.537 5.903,16.939 1.936,22.886 -4.471,6.703 -18.897,13.228 -23.971,2.088 -5.07,-11.14 2.856,-40.201 2.856,-40.201 0,0 -7.926,-16.014 -12.633,-21.049 C 75.237,6.432 66.704,6.617 66.403,10.523 66.102,14.43 81.397,38.079 79.452,48.149 78.467,53.247 73.518,63.631 62.444,55.321 51.374,47.012 47.272,34.737 47.272,34.737 c 0,0 -2.829,6.142 -0.727,9.652 2.104,3.509 8.93,14.902 8.93,14.902 0,0 -2.537,10.461 -17.527,2.924 C 22.958,54.678 30.185,32.707 27.283,21.692 24.383,10.677 13.985,10.176 13.985,10.176 c 0,0 0.61,24.82 -2.32,29.359 -2.93,4.541 -13.246,2.225 -13.246,2.225 0,0 -7.745,6.084 -15.77,0.613 -8.023,-5.471 -30.241,-31.721 -11.706,-58.032 18.532,-26.311 38.378,5.527 39.536,11.405 15.937,1.493 18.912,8.746 18.912,8.746 0,0 9.962,-36.886 5.409,-40.759 -4.552,-3.873 -7.617,14.411 -15.813,12.866 -8.195,-1.547 -6.782,-8.067 -6.782,-8.067 0,0 -2.986,-10.179 7.932,-19.064 10.914,-8.885 18.32,-0.135 18.32,-0.135 0,0 15.862,13.924 14.792,25.607 -1.069,11.684 -5.284,47.102 -5.284,47.102 0,0 14.118,19.423 13.604,6.122 -0.385,-9.955 -11.682,-15.957 -9.24,-24.926 2.443,-8.967 10.713,-11.979 17.054,-10.596 6.34,1.382 28.237,24.106 28.237,24.106 0,0 3.906,-12.018 5.107,-21.03 1.203,-9.014 -4.568,-14.867 -1.602,-22.606 2.963,-7.74 3.803,-12.515 14.221,-10.742 10.416,1.774 2.936,37.828 2.936,37.828 l -4.584,32.335 c 0,0 16.351,31.624 16.068,7.348 -0.115,-9.986 -14.721,-9.959 -11.504,-21.049 3.215,-11.086 11.225,-9.335 16.688,-8.309 5.463,1.031 23.164,14.529 23.164,14.529 0,0 1.002,-11.445 9.359,-14.65 14.84,-5.691 36.676,31.614 33.776,38.99"
             id="path176"
             style="fill:#bf1b2c;fill-opacity:1;fill-rule:evenodd;stroke:none" /></g><g
           transform="translate(249.7847,568.1021)"
           id="g178"><path
             d="m 0,0 c -5.763,-11.433 -15.776,-1.262 -15.564,8.135 0.21,9.396 7.354,24.953 10.167,25.303 C -2.586,33.789 -5.271,15.563 0,0 z m 201.249,49.392 c -2.897,7.376 -6.233,5.05 -6.233,5.05 0,0 -10.16,-24.169 -14.846,-20.335 -4.685,3.834 6.635,39.914 -0.427,42.356 -7.065,2.442 -2.235,1.844 -11.567,-0.668 -9.336,-2.51 -6.629,-13.883 -8.849,-29.133 -2.225,-15.246 -28.219,-30.278 -27.194,-22.727 1.032,7.546 27.155,40.895 4.95,44.686 -15.411,2.631 -21.475,-18.155 -25.325,-20.878 -3.213,0.537 5.903,16.939 1.936,22.886 -4.471,6.703 -18.897,13.228 -23.971,2.088 -5.07,-11.14 2.856,-40.201 2.856,-40.201 0,0 -7.926,-16.014 -12.633,-21.049 C 75.237,6.432 66.704,6.617 66.403,10.523 66.102,14.43 81.397,38.079 79.452,48.149 78.467,53.247 73.518,63.631 62.444,55.321 51.374,47.012 47.272,34.737 47.272,34.737 c 0,0 -2.829,6.142 -0.727,9.652 2.104,3.509 8.93,14.902 8.93,14.902 0,0 -2.537,10.461 -17.527,2.924 C 22.958,54.678 30.185,32.707 27.283,21.692 24.383,10.677 13.985,10.176 13.985,10.176 c 0,0 0.61,24.82 -2.32,29.359 -2.93,4.541 -13.246,2.225 -13.246,2.225 0,0 -7.745,6.084 -15.77,0.613 -8.023,-5.471 -30.241,-31.721 -11.706,-58.032 18.532,-26.311 38.378,5.527 39.536,11.405 15.937,1.493 18.912,8.746 18.912,8.746 0,0 9.962,-36.886 5.409,-40.759 -4.552,-3.873 -7.617,14.411 -15.813,12.866 -8.195,-1.547 -6.782,-8.067 -6.782,-8.067 0,0 -2.986,-10.179 7.932,-19.064 10.914,-8.885 18.32,-0.135 18.32,-0.135 0,0 15.862,13.924 14.792,25.607 -1.069,11.684 -5.284,47.102 -5.284,47.102 0,0 14.118,19.423 13.604,6.122 -0.385,-9.955 -11.682,-15.957 -9.24,-24.926 2.443,-8.967 10.713,-11.979 17.054,-10.596 6.34,1.382 28.237,24.106 28.237,24.106 0,0 3.906,-12.018 5.107,-21.03 1.203,-9.014 -4.568,-14.867 -1.602,-22.606 2.963,-7.74 3.803,-12.515 14.221,-10.742 10.416,1.774 2.936,37.828 2.936,37.828 l -4.584,32.335 c 0,0 16.351,31.624 16.068,7.348 -0.115,-9.986 -14.721,-9.959 -11.504,-21.049 3.215,-11.086 11.225,-9.335 16.688,-8.309 5.463,1.031 23.164,14.529 23.164,14.529 0,0 1.002,-11.445 9.359,-14.65 14.84,-5.691 36.676,31.614 33.776,38.99 z"
             id="path180"
             style="fill:none;stroke:#ffffff;stroke-width:7;stroke-linecap:butt;stroke-linejoin:miter;stroke-miterlimit:4;stroke-opacity:1;stroke-dasharray:none" /></g><g
           transform="translate(461.6953,660.5063)"
           id="g182"><path
             d="m 0,0 c -0.178,0.371 -0.385,0.737 -0.553,1.108 -3.451,7.659 -4.769,15.401 -1.334,19.395 4.069,4.731 12.317,3.631 16.578,2.846 0.76,-0.141 1.377,-0.267 1.84,-0.352 C 16.295,12.519 9.471,4.36 0,0 m -45.703,26.011 c 6.545,-1.177 14.676,-1.566 20.539,1.838 17.461,10.136 14.348,21.621 13.018,26.03 -0.368,1.215 -1.469,2.71 -2.868,4.262 0.27,0.004 0.526,0.033 0.801,0.033 16.818,0 26.248,-11.59 29.643,-26.417 -0.549,-0.012 -1.11,-0.035 -1.698,-0.08 C 8.633,31.286 2.283,29.675 -1.303,27.849 -13.076,21.859 -15.242,7.847 -14.398,2.831 c 0.334,-1.976 1.267,-3.83 2.279,-5.372 0.154,-0.235 0.31,-0.458 0.467,-0.679 -1.524,-0.175 -3.061,-0.293 -4.618,-0.293 -18.013,0 -30.878,11.925 -29.433,29.524 m 22.848,31.124 c 4.388,-5.301 5.25,-10.299 4.074,-12.416 -5.311,-9.581 -16.961,-10.388 -25.352,-9.915 3.194,11.534 10.354,19.606 21.278,22.331 m 0.585,11.508 c -21.277,-2.67 -39.46,-26.569 -40.076,-46.273 -0.73,-23.336 22.547,-35.685 42.25,-36.486 27.381,-1.113 44.504,21.735 44.504,41.45 0,19.715 -27.121,43.764 -46.678,41.309"
             id="path184"
             style="fill:#bf1b2c;fill-opacity:1;fill-rule:evenodd;stroke:none" /></g><g
           transform="translate(461.6953,660.5063)"
           id="g186"><path
             d="m 0,0 c -0.178,0.371 -0.385,0.737 -0.553,1.108 -3.451,7.659 -4.769,15.401 -1.334,19.395 4.069,4.731 12.317,3.631 16.578,2.846 0.76,-0.141 1.377,-0.267 1.84,-0.352 C 16.295,12.519 9.471,4.36 0,0 z m -45.703,26.011 c 6.545,-1.177 14.676,-1.566 20.539,1.838 17.461,10.136 14.348,21.621 13.018,26.03 -0.368,1.215 -1.469,2.71 -2.868,4.262 0.27,0.004 0.526,0.033 0.801,0.033 16.818,0 26.248,-11.59 29.643,-26.417 -0.549,-0.012 -1.11,-0.035 -1.698,-0.08 C 8.633,31.286 2.283,29.675 -1.303,27.849 -13.076,21.859 -15.242,7.847 -14.398,2.831 c 0.334,-1.976 1.267,-3.83 2.279,-5.372 0.154,-0.235 0.31,-0.458 0.467,-0.679 -1.524,-0.175 -3.061,-0.293 -4.618,-0.293 -18.013,0 -30.878,11.925 -29.433,29.524 z m 22.848,31.124 c 4.388,-5.301 5.25,-10.299 4.074,-12.416 -5.311,-9.581 -16.961,-10.388 -25.352,-9.915 3.194,11.534 10.354,19.606 21.278,22.331 z m 0.585,11.508 c -21.277,-2.67 -39.46,-26.569 -40.076,-46.273 -0.73,-23.336 22.547,-35.685 42.25,-36.486 27.381,-1.113 44.504,21.735 44.504,41.45 0,19.715 -27.121,43.764 -46.678,41.309 z"
             id="path188"
             style="fill:none;stroke:#ffffff;stroke-width:7;stroke-linecap:butt;stroke-linejoin:miter;stroke-miterlimit:4;stroke-opacity:1;stroke-dasharray:none" /></g><g
           transform="translate(355.3418,677.0688)"
           id="g190"><path
             d="m 0,0 c 0,0 -9.041,-11.896 -9.744,2.609 -0.699,14.505 8.033,22.765 8.033,22.765 L 0,0 z m -92.355,-2.426 c -4.602,4.025 -5.879,32.167 -5.879,32.167 0,0 3.264,3.299 8.01,-5.533 4.746,-8.834 2.471,-30.657 -2.131,-26.634 m -32.52,0.836 c 2.319,31.903 13.743,37.283 13.743,37.283 0,0 -5.608,-34.759 12.943,-54.057 1.75,-10.984 -29.002,-15.129 -26.686,16.774 M 30.27,15.841 c 0,0 -12.043,-28.575 -15.495,-10.93 -3.453,17.645 4.09,23.84 -1.113,34.787 C 8.465,50.647 -3.885,39.99 -3.885,39.99 l 0.696,-3.808 c 0,0 -22.584,-7.239 -23.094,-33.965 -2.633,-9.455 -19.371,-24.302 -19.516,-14.065 -0.146,10.235 -0.351,24.648 -0.351,24.648 0,0 12.31,-0.711 14.63,4.001 0.743,1.509 0.729,6.911 -0.216,8.294 -1.94,2.834 -12.723,-0.551 -12.723,-0.551 l 3.355,20.452 c 0,0 2.342,10.78 -12.585,4.26 -14.927,-6.521 -7.939,-29.626 -7.939,-29.626 0,0 -6.422,0.447 -7.002,-6.163 -0.463,-5.286 6.276,-2.304 6.276,-2.304 0,0 -0.355,-26.529 -17.333,-23.438 1.748,5.246 17.445,48.594 -6.285,60.128 -5.084,3.883 -13.24,0.178 -18.321,-1.723 -13.341,23.737 -75.931,-59.89 -21.269,-91.805 20.318,-7.384 40.455,20.362 40.455,20.362 0,0 14.061,-2.725 21.247,5.79 14.989,-33.31 39.094,6.27 39.094,6.27 0,0 16.09,-25.944 24.543,4.487 12.369,-36.326 36.153,13.397 36.196,19.739 0.047,6.341 -5.703,4.868 -5.703,4.868"
             id="path192"
             style="fill:#bf1b2c;fill-opacity:1;fill-rule:evenodd;stroke:none" /></g><g
           transform="translate(355.3418,677.0688)"
           id="g194"><path
             d="m 0,0 c 0,0 -9.041,-11.896 -9.744,2.609 -0.699,14.505 8.033,22.765 8.033,22.765 L 0,0 z m -92.355,-2.426 c -4.602,4.025 -5.879,32.167 -5.879,32.167 0,0 3.264,3.299 8.01,-5.533 4.746,-8.834 2.471,-30.657 -2.131,-26.634 z m -32.52,0.836 c 2.319,31.903 13.743,37.283 13.743,37.283 0,0 -5.608,-34.759 12.943,-54.057 1.75,-10.984 -29.002,-15.129 -26.686,16.774 z M 30.27,15.841 c 0,0 -12.043,-28.575 -15.495,-10.93 -3.453,17.645 4.09,23.84 -1.113,34.787 C 8.465,50.647 -3.885,39.99 -3.885,39.99 l 0.696,-3.808 c 0,0 -22.584,-7.239 -23.094,-33.965 -2.633,-9.455 -19.371,-24.302 -19.516,-14.065 -0.146,10.235 -0.351,24.648 -0.351,24.648 0,0 12.31,-0.711 14.63,4.001 0.743,1.509 0.729,6.911 -0.216,8.294 -1.94,2.834 -12.723,-0.551 -12.723,-0.551 l 3.355,20.452 c 0,0 2.342,10.78 -12.585,4.26 -14.927,-6.521 -7.939,-29.626 -7.939,-29.626 0,0 -6.422,0.447 -7.002,-6.163 -0.463,-5.286 6.276,-2.304 6.276,-2.304 0,0 -0.355,-26.529 -17.333,-23.438 1.748,5.246 17.445,48.594 -6.285,60.128 -5.084,3.883 -13.24,0.178 -18.321,-1.723 -13.341,23.737 -75.931,-59.89 -21.269,-91.805 20.318,-7.384 40.455,20.362 40.455,20.362 0,0 14.061,-2.725 21.247,5.79 14.989,-33.31 39.094,6.27 39.094,6.27 0,0 16.09,-25.944 24.543,4.487 12.369,-36.326 36.153,13.397 36.196,19.739 0.047,6.341 -5.703,4.868 -5.703,4.868 z"
             id="path196"
             style="fill:none;stroke:#ffffff;stroke-width:7;stroke-linecap:butt;stroke-linejoin:miter;stroke-miterlimit:4;stroke-opacity:1;stroke-dasharray:none" /></g><g
           transform="translate(373.7988,699.9683)"
           id="g198"><path
             d="m 0,0 c -1.514,6.054 2.119,5.838 7.869,6.097 5.75,0.26 13.822,10.36 16.404,9.644 2.586,-0.715 3.27,0.906 5.086,-4.845 C 31.176,5.146 20.281,0 20.281,0 20.281,0 1.512,-6.054 0,0"
             id="path200"
             style="fill:#bf1b2c;fill-opacity:1;fill-rule:nonzero;stroke:none" /></g><g
           transform="translate(373.7988,699.9683)"
           id="g202"><path
             d="m 0,0 c -1.514,6.054 2.119,5.838 7.869,6.097 5.75,0.26 13.822,10.36 16.404,9.644 2.586,-0.715 3.27,0.906 5.086,-4.845 C 31.176,5.146 20.281,0 20.281,0 20.281,0 1.512,-6.054 0,0 z"
             id="path204"
             style="fill:none;stroke:#ffffff;stroke-width:7;stroke-linecap:butt;stroke-linejoin:miter;stroke-miterlimit:4;stroke-opacity:1;stroke-dasharray:none" /></g><g
           transform="translate(479.8438,685.0684)"
           id="g206"><path
             d="m 0,0 c 0,-18.568 -14.781,-33.62 -33.014,-33.62 -18.233,0 -33.014,15.052 -33.014,33.62 0,18.567 14.781,33.62 33.014,33.62 C -14.781,33.62 0,18.567 0,0"
             id="path208"
             style="fill:#ffffff;fill-opacity:1;fill-rule:evenodd;stroke:none" /></g><g
           transform="translate(144.7017,580.9775)"
           id="g210"><path
             d="M 0,0 C 0,0 -17.469,1.615 -14.521,13.016 -11.574,24.413 -5.039,36.775 0.1,31.518 5.24,26.261 0,0 0,0 M 51.355,53.805 C 35.616,44.24 40.613,0.669 27.035,-7.356 c -5.871,-4.88 -7.469,-1.409 -7.469,-1.409 0,0 13.643,71.791 -15.656,62.125 -29.299,-9.666 -40.074,-39.609 -31.372,-57.775 8.702,-18.166 27.04,-9.244 27.04,-9.244 0,0 0.323,-6.102 -1.517,-13.112 -2.276,-8.66 -6.405,-19.079 -1.235,-25.505 9.357,-11.631 22.46,-4.07 22.46,-4.07 0,0 -3.282,31.446 1.182,30.777 10.317,-0.7 21.949,-26.422 34.103,-31.867 12.154,-5.443 26.378,21.186 17.927,22.99 -4.963,-1.688 -9.108,-1.715 -9.108,-1.715 0,0 -13.224,20.143 -21.902,23.601 3.147,4.745 25.094,46.598 25.094,46.598 0,0 7.197,-0.154 6.746,8.251 -0.451,8.402 -6.232,21.082 -21.973,11.516"
             id="path212"
             style="fill:#bf1b2c;fill-opacity:1;fill-rule:evenodd;stroke:none" /></g><g
           transform="translate(249.7847,568.1016)"
           id="g214"><path
             d="m 0,0 c -5.763,-11.432 -15.776,-1.262 -15.564,8.135 0.21,9.396 7.354,24.953 10.167,25.303 C -2.586,33.789 -5.271,15.563 0,0 m 201.249,49.392 c -2.897,7.376 -6.233,5.051 -6.233,5.051 0,0 -10.16,-24.17 -14.846,-20.336 -4.685,3.834 6.635,39.915 -0.427,42.356 -7.065,2.443 -2.235,1.844 -11.567,-0.668 -9.336,-2.509 -6.629,-13.882 -8.849,-29.132 -2.225,-15.247 -28.219,-30.279 -27.194,-22.728 1.032,7.546 27.155,40.896 4.95,44.687 -15.411,2.63 -21.475,-18.156 -25.325,-20.878 -3.213,0.537 5.903,16.938 1.936,22.885 -4.471,6.704 -18.897,13.229 -23.971,2.088 -5.07,-11.139 2.856,-40.201 2.856,-40.201 0,0 -7.926,-16.014 -12.633,-21.049 C 75.237,6.432 66.704,6.617 66.403,10.523 66.102,14.43 81.397,38.079 79.452,48.15 78.467,53.248 73.518,63.631 62.444,55.322 51.374,47.012 47.272,34.737 47.272,34.737 c 0,0 -2.829,6.142 -0.727,9.652 2.104,3.51 8.93,14.903 8.93,14.903 0,0 -2.537,10.46 -17.527,2.923 C 22.958,54.678 30.185,32.707 27.283,21.692 24.383,10.677 13.985,10.176 13.985,10.176 c 0,0 0.61,24.82 -2.32,29.359 -2.93,4.541 -13.246,2.225 -13.246,2.225 0,0 -7.745,6.084 -15.77,0.613 -8.023,-5.471 -30.241,-31.721 -11.706,-58.031 18.532,-26.31 38.378,5.527 39.536,11.404 15.937,1.493 18.912,8.746 18.912,8.746 0,0 9.962,-36.884 5.409,-40.757 -4.552,-3.875 -7.617,14.41 -15.813,12.865 -8.195,-1.547 -6.782,-8.066 -6.782,-8.066 0,0 -2.986,-10.18 7.932,-19.065 10.914,-8.886 18.32,-0.136 18.32,-0.136 0,0 15.862,13.925 14.792,25.607 -1.069,11.685 -5.284,47.102 -5.284,47.102 0,0 14.118,19.423 13.604,6.122 C 61.184,18.209 49.887,12.207 52.329,3.238 54.772,-5.729 63.042,-8.74 69.383,-7.358 c 6.34,1.382 28.237,24.106 28.237,24.106 0,0 3.906,-12.018 5.107,-21.03 1.203,-9.013 -4.568,-14.866 -1.602,-22.604 2.963,-7.74 3.803,-12.518 14.221,-10.744 10.416,1.773 2.936,37.828 2.936,37.828 l -4.584,32.335 c 0,0 16.351,31.625 16.068,7.348 -0.115,-9.986 -14.721,-9.959 -11.504,-21.049 3.215,-11.086 11.225,-9.335 16.688,-8.309 5.463,1.031 23.164,14.529 23.164,14.529 0,0 1.002,-11.445 9.359,-14.65 14.84,-5.691 36.676,31.614 33.776,38.99"
             id="path216"
             style="fill:#bf1b2c;fill-opacity:1;fill-rule:evenodd;stroke:none" /></g><g
           transform="translate(461.6953,660.5063)"
           id="g218"><path
             d="m 0,0 c -0.178,0.371 -0.385,0.737 -0.553,1.108 -3.451,7.659 -4.769,15.401 -1.334,19.395 4.069,4.731 12.317,3.631 16.578,2.846 0.76,-0.141 1.377,-0.267 1.84,-0.352 C 16.295,12.519 9.471,4.36 0,0 m -45.703,26.011 c 6.545,-1.177 14.676,-1.566 20.539,1.838 17.461,10.136 14.348,21.621 13.018,26.03 -0.368,1.215 -1.469,2.71 -2.868,4.262 0.27,0.004 0.526,0.033 0.801,0.033 16.818,0 26.248,-11.59 29.643,-26.417 -0.549,-0.012 -1.11,-0.035 -1.698,-0.08 C 8.633,31.286 2.283,29.675 -1.303,27.849 -13.076,21.859 -15.242,7.847 -14.398,2.831 c 0.334,-1.976 1.267,-3.83 2.279,-5.372 0.154,-0.235 0.31,-0.458 0.467,-0.679 -1.524,-0.175 -3.061,-0.293 -4.618,-0.293 -18.013,0 -30.878,11.925 -29.433,29.524 m 22.848,31.124 c 4.388,-5.301 5.25,-10.299 4.074,-12.416 -5.311,-9.581 -16.961,-10.388 -25.352,-9.915 3.194,11.534 10.354,19.606 21.278,22.331 m 0.585,11.508 c -21.277,-2.67 -39.46,-26.569 -40.076,-46.273 -0.73,-23.336 22.547,-35.685 42.25,-36.486 27.381,-1.113 44.504,21.735 44.504,41.45 0,19.715 -27.121,43.764 -46.678,41.309"
             id="path220"
             style="fill:#bf1b2c;fill-opacity:1;fill-rule:evenodd;stroke:none" /></g><g
           transform="translate(355.3418,677.0688)"
           id="g222"><path
             d="m 0,0 c 0,0 -9.041,-11.896 -9.744,2.609 -0.699,14.505 8.033,22.765 8.033,22.765 L 0,0 z m -92.355,-2.426 c -4.602,4.025 -5.879,32.167 -5.879,32.167 0,0 3.264,3.299 8.01,-5.533 4.746,-8.834 2.471,-30.657 -2.131,-26.634 m -32.52,0.836 c 2.319,31.903 13.743,37.283 13.743,37.283 0,0 -5.608,-34.759 12.943,-54.057 1.75,-10.984 -29.002,-15.129 -26.686,16.774 M 30.27,15.841 c 0,0 -12.043,-28.575 -15.495,-10.93 -3.453,17.645 4.09,23.84 -1.113,34.787 C 8.465,50.647 -3.885,39.99 -3.885,39.99 l 0.696,-3.808 c 0,0 -22.584,-7.239 -23.094,-33.965 -2.633,-9.455 -19.371,-24.302 -19.516,-14.065 -0.146,10.235 -0.351,24.648 -0.351,24.648 0,0 12.31,-0.711 14.63,4.001 0.743,1.509 0.729,6.911 -0.216,8.294 -1.94,2.834 -12.723,-0.551 -12.723,-0.551 l 3.355,20.452 c 0,0 2.342,10.78 -12.585,4.26 -14.927,-6.521 -7.939,-29.626 -7.939,-29.626 0,0 -6.422,0.447 -7.002,-6.163 -0.463,-5.286 6.276,-2.304 6.276,-2.304 0,0 -0.355,-26.529 -17.333,-23.438 1.748,5.246 17.445,48.594 -6.285,60.128 -5.084,3.883 -13.24,0.178 -18.321,-1.723 -13.341,23.737 -75.931,-59.89 -21.269,-91.805 20.318,-7.384 40.455,20.362 40.455,20.362 0,0 14.061,-2.725 21.247,5.79 14.989,-33.31 39.094,6.27 39.094,6.27 0,0 16.09,-25.944 24.543,4.487 12.369,-36.326 36.153,13.397 36.196,19.739 0.047,6.341 -5.703,4.868 -5.703,4.868"
             id="path224"
             style="fill:#bf1b2c;fill-opacity:1;fill-rule:evenodd;stroke:none" /></g><g
           transform="translate(373.7988,699.9683)"
           id="g226"><path
             d="m 0,0 c -1.514,6.054 2.119,5.838 7.869,6.097 5.75,0.26 13.822,10.36 16.404,9.644 2.586,-0.715 3.27,0.906 5.086,-4.845 C 31.176,5.146 20.281,0 20.281,0 20.281,0 1.512,-6.054 0,0"
             id="path228"
             style="fill:#bf1b2c;fill-opacity:1;fill-rule:nonzero;stroke:none" /></g></g></g></g></svg>